<svg class="header" width="null" height="null" xmlns="http://www.w3.org/2000/svg" style="animation-delay: 0s; animation-direction: normal; animation-duration: 0s; animation-fill-mode: none; animation-iteration-count: 1; animation-name: none; animation-play-state: running; animation-timing-function: ease; background-attachment: scroll; background-blend-mode: normal; background-clip: border-box; background-color: rgba(0, 0, 0, 0); background-image: none; background-origin: padding-box; background-position: 0% 0%; background-repeat: repeat; background-size: auto; border-bottom-color: rgb(96, 108, 118); border-bottom-left-radius: 0px; border-bottom-right-radius: 0px; border-bottom-style: none; border-bottom-width: 0px; border-collapse: separate; border-image-outset: 0px; border-image-repeat: stretch; border-image-slice: 100%; border-image-source: none; border-image-width: 1; border-left-color: rgb(96, 108, 118); border-left-style: none; border-left-width: 0px; border-right-color: rgb(96, 108, 118); border-right-style: none; border-right-width: 0px; border-top-color: rgb(96, 108, 118); border-top-left-radius: 0px; border-top-right-radius: 0px; border-top-style: none; border-top-width: 0px; bottom: auto; box-shadow: none; box-sizing: border-box; break-after: auto; break-before: auto; break-inside: auto; caption-side: top; clear: none; clip: auto; color: rgb(96, 108, 118); content: ; cursor: auto; direction: ltr; display: inline; empty-cells: show; float: none; font-family: Roboto, &quot;Helvetica Neue&quot;, Helvetica, Arial, sans-serif; font-kerning: auto; font-size: 16px; font-stretch: normal; font-style: normal; font-variant: normal; font-variant-ligatures: normal; font-variant-caps: normal; font-variant-numeric: normal; font-weight: 300; height: 150px; image-rendering: auto; isolation: auto; justify-items: normal; justify-self: auto; left: auto; letter-spacing: 0.16px; line-height: 25.6px; list-style-image: none; list-style-position: outside; list-style-type: disc; margin-bottom: 20px; margin-left: 0px; margin-right: 0px; margin-top: 0px; max-height: none; max-width: none; min-height: 0px; min-width: 0px; mix-blend-mode: normal; object-fit: fill; object-position: 50% 50%; offset-distance: 0px; offset-path: none; offset-rotate: auto 0deg; opacity: 1; orphans: 2; outline-color: rgb(96, 108, 118); outline-offset: 0px; outline-style: none; outline-width: 0px; overflow-anchor: auto; overflow-wrap: normal; overflow-x: hidden; overflow-y: hidden; padding-bottom: 0px; padding-left: 0px; padding-right: 0px; padding-top: 0px; pointer-events: auto; position: static; resize: none; right: auto; scroll-behavior: auto; speak: normal; table-layout: auto; tab-size: 8; text-align: center; text-align-last: auto; text-decoration: none solid rgb(96, 108, 118); text-decoration-line: none; text-decoration-style: solid; text-decoration-color: rgb(96, 108, 118); text-decoration-skip: objects; text-underline-position: auto; text-indent: 0px; text-rendering: auto; text-shadow: none; text-size-adjust: 100%; text-overflow: clip; text-transform: none; top: auto; touch-action: auto; transition-delay: 0s; transition-duration: 0s; transition-property: all; transition-timing-function: ease; unicode-bidi: normal; vertical-align: baseline; visibility: visible; white-space: normal; widows: 2; width: 103.797px; will-change: auto; word-break: normal; word-spacing: 0px; word-wrap: normal; z-index: auto; zoom: 1; -webkit-appearance: none; backface-visibility: visible; -webkit-background-clip: border-box; -webkit-background-origin: padding-box; -webkit-border-horizontal-spacing: 0px; -webkit-border-image: none; -webkit-border-vertical-spacing: 0px; -webkit-box-align: stretch; -webkit-box-decoration-break: slice; -webkit-box-direction: normal; -webkit-box-flex: 0; -webkit-box-flex-group: 1; -webkit-box-lines: single; -webkit-box-ordinal-group: 1; -webkit-box-orient: horizontal; -webkit-box-pack: start; -webkit-box-reflect: none; column-count: auto; column-gap: normal; column-rule-color: rgb(96, 108, 118); column-rule-style: none; column-rule-width: 0px; column-span: none; column-width: auto; align-content: normal; align-items: normal; align-self: auto; flex-basis: auto; flex-grow: 0; flex-shrink: 1; flex-direction: row; flex-wrap: nowrap; justify-content: normal; -webkit-font-smoothing: auto; grid-auto-columns: auto; grid-auto-flow: row; grid-auto-rows: auto; grid-column-end: auto; grid-column-start: auto; grid-template-areas: none; grid-template-columns: none; grid-template-rows: none; grid-row-end: auto; grid-row-start: auto; grid-column-gap: 0px; grid-row-gap: 0px; -webkit-highlight: none; hyphens: manual; -webkit-hyphenate-character: auto; -webkit-line-break: auto; -webkit-line-clamp: none; -webkit-locale: &quot;en&quot;; -webkit-margin-before-collapse: collapse; -webkit-margin-after-collapse: collapse; -webkit-mask-box-image: none; -webkit-mask-box-image-outset: 0px; -webkit-mask-box-image-repeat: stretch; -webkit-mask-box-image-slice: 0 fill; -webkit-mask-box-image-source: none; -webkit-mask-box-image-width: auto; -webkit-mask-clip: border-box; -webkit-mask-composite: source-over; -webkit-mask-image: none; -webkit-mask-origin: border-box; -webkit-mask-position: 0% 0%; -webkit-mask-repeat: repeat; -webkit-mask-size: auto; order: 0; perspective: none; perspective-origin: 51.8906px 75px; -webkit-print-color-adjust: economy; -webkit-rtl-ordering: logical; shape-outside: none; shape-image-threshold: 0; shape-margin: 0px; -webkit-tap-highlight-color: rgba(0, 0, 0, 0.18); -webkit-text-combine: none; -webkit-text-decorations-in-effect: none; -webkit-text-emphasis-color: rgb(96, 108, 118); -webkit-text-emphasis-position: over; -webkit-text-emphasis-style: none; -webkit-text-fill-color: rgb(96, 108, 118); -webkit-text-orientation: vertical-right; -webkit-text-security: none; -webkit-text-stroke-color: rgb(96, 108, 118); -webkit-text-stroke-width: 0px; transform: none; transform-origin: 51.8906px 75px; transform-style: flat; -webkit-user-drag: auto; -webkit-user-modify: read-only; user-select: text; -webkit-writing-mode: horizontal-tb; -webkit-app-region: no-drag; buffered-rendering: auto; clip-path: none; clip-rule: nonzero; mask: none; filter: none; flood-color: rgb(0, 0, 0); flood-opacity: 1; lighting-color: rgb(255, 255, 255); stop-color: rgb(0, 0, 0); stop-opacity: 1; color-interpolation: sRGB; color-interpolation-filters: linearRGB; color-rendering: auto; fill: rgb(0, 0, 0); fill-opacity: 1; fill-rule: nonzero; marker-end: none; marker-mid: none; marker-start: none; mask-type: luminance; shape-rendering: auto; stroke: none; stroke-dasharray: none; stroke-dashoffset: 0px; stroke-linecap: butt; stroke-linejoin: miter; stroke-miterlimit: 4; stroke-opacity: 1; stroke-width: 1px; alignment-baseline: auto; baseline-shift: 0px; dominant-baseline: auto; text-anchor: start; writing-mode: horizontal-tb; vector-effect: none; paint-order: fill stroke markers; d: none; cx: 0px; cy: 0px; x: 0px; y: 0px; r: 0px; rx: auto; ry: auto; caret-color: rgb(96, 108, 118); line-break: auto;" version="1.1" xmlns:xlink="http://www.w3.org/1999/xlink"><style type="text/css">.header .img { height: 15rem; margin-bottom: 2rem; }
.header .img path { animation: a 7s forwards; fill: rgb(155, 77, 202); stroke: rgb(155, 77, 202); stroke-dasharray: 38321; stroke-miterlimit: 10; stroke-width: 15px; }</style><svg xmlns="http://www.w3.org/2000/svg" class="img" version="1.1" viewBox="0 0 463 669"><g transform="translate(0.000000,669.000000) scale(0.100000,-0.100000)"><path d="M2303 6677c-11-13-58-89-393-627-128-206-247-397-265-425-18-27-85-135-150-240-65-104-281-451-480-770-358-575-604-970-641-1032-10-18-45-74-76-126-47-78-106-194-107-212-1-3-11-26-24-53-60-118-132-406-157-623-19-158-8-491 20-649 82-462 291-872 619-1213 192-199 387-340 646-467 335-165 638-235 1020-235 382 0 685 70 1020 235 259 127 454 268 646 467 328 341 537 751 619 1213 28 158 39 491 20 649-25 217-97 505-157 623-13 27-23 50-23 53 0 16-57 127-107 210-32 52-67 110-77 128-37 62-283 457-641 1032-199 319-415 666-480 770-65 105-132 213-150 240-18 28-137 219-265 425-354 570-393 630-400 635-4 3-12-1-17-8zm138-904c118-191 654-1050 1214-1948 148-236 271-440 273-452 2-13 8-23 11-23 14 0 72-99 125-212 92-195 146-384 171-598 116-974-526-1884-1488-2110-868-205-1779 234-2173 1046-253 522-257 1124-10 1659 45 97 108 210 126 225 4 3 9 13 13 22 3 9 126 209 273 445 734 1176 1102 1766 1213 1946 67 108 124 197 126 197 2 0 59-89 126-197zM1080 3228c-75-17-114-67-190-243-91-212-128-368-137-580-34-772 497-1451 1254-1605 77-15 112-18 143-11 155 35 212 213 106 329-32 36-62 48-181 75-223 50-392 140-552 291-115 109-178 192-242 316-101 197-136 355-128 580 3 111 10 167 30 241 30 113 80 237 107 267 11 12 20 26 20 32 0 6 8 22 17 36 26 41 27 99 3 147-54 105-142 149-250 125z"/></g></svg></svg>